<svg id="Layer_1" data-name="Layer 1" xmlns="http://www.w3.org/2000/svg" viewBox="0 0 834.61 1235.5"><title>1</title><path d="M331.22,942.41c2.73-17.48,11-32.19,22.81-45,17.13-18.7,36.83-34,59.77-45.09,18.2-8.8,33.42-21,42.83-39.53,5.74-11.3,6.62-23.59,7.4-35.86A715.44,715.44,0,0,0,463,675.15c-2.42-31-6.22-61.81-14.6-91.89-1.74-6.24-5.57-11.29-8.43-16.87a177.73,177.73,0,0,1-18.61-59.51,35.41,35.41,0,0,1,5.77-24.7,11.23,11.23,0,0,0,2.07-6.44,313,313,0,0,1,18.6-103c2.06-5.71,2.05-5.6-3.88-5.2-9.83.67-19.53,1.87-28.52,6.23-2,1-3.71.81-4.65-1.12s.65-3,2.19-3.78c6.75-3.48,14.06-5,21.49-5.9,4.61-.58,9.26-.87,13.91-1.07,2.63-.11,4.09-1.07,5.15-3.64A215.14,215.14,0,0,1,468.61,328c1.71-2.83,1.36-4.07-1.56-5.6a134.23,134.23,0,0,0-50.4-14.52,122.69,122.69,0,0,0-24.39-.28c-2,.22-4.44.26-4.63-2.47s2-3,4.16-3.11c27.53-1.26,54,2.49,78.56,16,2.33,1.29,3.53,1.28,5.13-1.11q6.67-9.93,13.93-19.47c1.6-2.11,1.71-3.08-.68-4.5-19.23-11.45-39.59-16.85-62-12.34-2.34.47-6.25,3.16-7.25-.94-1.11-4.57,3.83-3.9,6.24-4.36,23.42-4.4,45.28,0,65.38,12.71,3.21,2,4.8,1.74,7.22-1.08A212.87,212.87,0,0,1,528.63,258c2.64-2.08,2.84-3.13.11-5.39-20-16.52-42.46-25-68.66-22.11-2,.21-3.84.2-4-2.41s1.72-2.84,3.65-3.08c20.6-2.65,39.56,2.22,57.33,12.49A92.73,92.73,0,0,1,533.88,250c1.79,1.67,3.13,2,5,.22a30.09,30.09,0,0,1,3.66-2.59c6.53-4.53,6.54-4.55,0-9.49a122.46,122.46,0,0,0-23.61-13.83c-1.78-.79-4.22-1.43-3.25-4.08,1.1-3,3.49-1.81,5.45-.95a122.08,122.08,0,0,1,30,18.55c1.32,1.11,2.3,2.72,4.62,1.23A285.11,285.11,0,0,1,582,224.56c-9.7-8.33-17.45-18.32-29.5-22.93-1.55-.59-2.6-1.58-2-3.42s2.05-2.12,3.65-1.77c3.48.75,6.4,2.69,9.27,4.7a154.16,154.16,0,0,1,20.68,18c2.6,2.62,4.57,2.57,7.66,1.15,9.45-4.37,9.53-4.25,3.19-12.41-14.74-19-30.37-37.1-50.56-50.64-1.43-1-2.95-2.05-1.77-4,1.45-2.38,3.39-1.46,5.15-.3,11.93,7.78,22.23,17.43,31.84,27.87a290,290,0,0,1,24.5,30.22c1.66,2.37,3,3.28,6,2.08,5.53-2.22,11.24-4,17-5.76,2.16-.67,3.5-1,1.43-3.4-14.08-16.14-28.62-31.64-50.1-38-1.89-.56-3.74-1.33-3-3.65.67-2.11,2.42-2.16,4.52-1.61,15,3.95,26.72,13.1,37.7,23.44a137.18,137.18,0,0,1,16.15,17.67c1.86,2.49,3.7,2.65,6.37,2,7.09-1.73,14.21-3.39,21.38-4.76,3.3-.64,3.2-1.83,1.71-4.24-4.87-7.87-9.87-15.53-19.76-17.83-1.66-.38-2.74-1.48-2.26-3.24s1.93-2,3.59-1.85c5.06.55,9,3.27,12.63,6.53a50.83,50.83,0,0,1,11.24,15.15c1.41,2.79,3,3.78,6.24,3.17a184.83,184.83,0,0,1,26.24-2.94c3.74-.16,4.91-1.5,5-5.39.29-21.8,1.38-43.54,7.64-64.64,1.86-6.25,4.37-12.2,8.5-17.36,1.43-1.78,3.16-3.66,5.37-1.93,2.58,2,.16,3.73-1.1,5.38-7.68,10-9.82,22.06-11.73,34a283.26,283.26,0,0,0-3.26,44.24c0,3.77.77,5.18,4.86,5,11.54-.52,8.56,1.44,10.23-9.67,2.44-16.14,5.23-32.12,12.59-46.91a42.25,42.25,0,0,1,5.81-8.69c1.23-1.44,2.9-2.13,4.41-1.11,1.69,1.15,1.14,3,0,4.4-13.17,17.21-15,37.88-18,58.24-.51,3.51,1,3.7,3.72,3.69a261.82,261.82,0,0,1,43.65,3.86c3.3.54,4.81.24,5.09-3.95,1.27-18.55,4.82-36.55,14.78-52.7a53.75,53.75,0,0,1,9.77-11.94c1.64-1.47,3.58-4,5.9-1.7,2.53,2.53-.39,4.09-2,5.59-7.66,7.22-12.66,16-16.43,27.12,1.94-1.29,2.93-1.9,3.88-2.58,3.12-2.28,6.4-4.19,10.31-4.73,1.95-.26,4.36-.89,4.95,1.79s-1.78,2.85-3.75,3.45c-11.06,3.38-17.2,11.65-20.27,22.14-1.46,5-1.21,10.53-1.72,15.82-.22,2.31.46,3.5,3.11,4A263,263,0,0,1,823,206.7c2.9.91,3.77-.3,4.7-2.6a63.7,63.7,0,0,1,16-23.81c2.08-1.9,4.37-3.57,6.62-5.28,1.56-1.2,3.5-2,4.83-.08s.1,3.38-1.64,4.54a55.67,55.67,0,0,0-4.74,3.64c-7.43,6.28-12.17,14.42-16,23.17-.86,1.94-.94,3,1.61,4,8.16,3,8.06,3.16,11.92-4.36,8.52-16.61,19.56-30.9,36.76-39.39a40.66,40.66,0,0,1,14.19-4.4c1.57-.15,3.05,0,3.29,2.11.22,1.89-.78,2.72-2.47,3.08-23,4.93-36,21.26-46.52,40.48-3.84,7-3.71,7.15,3.67,10.08a295.53,295.53,0,0,1,38.17,18.25c2.86,1.64,4.43,1.7,7-1,16.82-17.48,36.41-30.4,60.56-35.5A87.86,87.86,0,0,1,981.2,198c2,.05,4.36-.13,4.19,2.85-.14,2.61-2.38,2.38-4.17,2.37-30.64-.2-54.79,13.83-75.81,34.65-1,1-4.07,1.92-1.6,4,1.88,1.61,3.75,3.95,7,.69,9.59-9.77,20.21-18.32,32.78-24.11,5.3-2.44,10.77-4.35,16.7-4.57,1.77-.06,3.5-.05,3.76,2.19s-1.23,2.78-3.08,3c-18.9,2.59-32.35,14.53-45.74,26.64-2.16,1.95-1.27,2.77.55,4a271.81,271.81,0,0,1,43.55,36.47c1.13,1.17,2.06,2.62,3.89.45,4.19-5,10.25-6,16.2-6.56,5-.48,10-.14,15-.11,2.12,0,4.27.33,4,3.16s-2.66,2.61-4.59,2.39a54,54,0,0,0-20.27,1.25,15.09,15.09,0,0,0-4.5,2c-2.84,1.9-3.46,4.07-.9,7,27.72,31.52,45.25,68.22,58,108.07,7.23,22.71,11.33,45.61,14.28,69a12.82,12.82,0,0,0,.75,3.4c.72,1.66-1.1,5,2.7,4.68,3.45-.26,5.4-2.26,5.61-5.79.06-1,0-2,0-3,0-5.66-.19-11.33,0-17a55.53,55.53,0,0,0-5.57-27.75c-6.57-13.43-6.85-27.62,1.35-41.44,7.28-12.26,6.94-24.74-1.23-37a54.54,54.54,0,0,1-8.4-40c2.14-13.05,13.57-21.75,27.67-23.1,28.43-2.74,39.34,15.69,43.88,36.36a95.37,95.37,0,0,1,2.1,24c6.11-1.18,11.64-2.87,17.41-3.58,28.25-3.48,44,20,37.83,44.73-2.49,10-8.2,18.44-13.85,26.86s-12,16.78-16.82,25.92c-7.71,14.5-7,28.31,2.72,41.6a14.92,14.92,0,0,0,.85,1.23c10.36,11.71,3.37,20.83-7.18,26.13-3.2,1.6-4.14,3.29-4.13,6.68q.17,67.44.07,134.88c0,27.79-.18,55.58-3.17,83.25-3.15,29.14-9.56,57.64-17.13,85.91-6.06,22.62-12,45.27-14.08,68.7-1.39,15.59-.93,31.25-1.62,46.86-1.3,29.44-4.52,58.62-11.9,87.26-2.43,9.45-.55,19.22-1,28.83-.07,1.68,1.45,2.1,2.4,2.93,10.7,9.4,12.13,20.69,3.3,31.61-2.85,3.53-2.92,7.27-3.33,11.1-2.81,26.48-15.26,48.12-33.42,66.88-25.75,26.61-57.92,42.44-92.45,53.91-9.54,3.17-16.07,9.06-21.19,17.07-6.15,9.65-9.26,20.49-11.84,31.52-.69,3,.71,3.3,3,3.71,11.58,2,22.46,5.76,31.87,13.11,12.66,9.88,15.7,25.35,11,40-1.91,6-6.38,9.57-12.08,11.75a65,65,0,0,1-23,3.87c-25.46.17-50.92,0-76.38,0a15,15,0,0,1-9-2.46c-4.69-3.34-9.67-3.62-15.16-2.19-13,3.38-26.3,3.59-39.57,1.61-14-2.08-16.38-12.05-14.21-22.65,1.22-6,3.52-11.72,5.51-17.51a11.61,11.61,0,0,0-3.39-13.17c-5.57-5-7.47-10.91-7.12-18.24.49-10.3.16-20.64.52-31,.16-4.47-1.16-6.39-5.87-6.27-8.31.21-16.65.12-25-.14-4.1-.13-5.68,1.38-5.62,5.48.16,9.82,0,19.65.07,29.47a23,23,0,0,1-3.47,12.76c-5,8.18-5.61,16.08.6,24.46,7.32,9.9,4.36,23.22-5.84,30.25a14.72,14.72,0,0,1-9.38,2.7c-10.79-.55-21.49-2.18-32.32-2.21-7.64,0-15.06.1-19.91,7.48-1.22,1.85-3.45,2-5.43,2-32,0-63.92.1-95.88-.18-10.09-.09-16.91-5.82-18.11-15.78-1.88-15.66.42-30.58,12.09-42.53,6.44-6.59,14.66-9.6,23.62-10.59,8.73-1,8.75-.82,8.75-9.75,0-17-.16-34,.1-51,.07-4.53-1.27-7-5.33-9.32-37.76-21.33-73.17-46-105-75.58-3-2.84-5.45-7.07-9-8.45-4.09-1.58-6.33,4-10,5.64-20.4,9.26-42.22,6.89-56.07-14.24-9.54-14.56-10.91-30.66-9.26-47.41,1.05-10.68,5.63-20.41,8.06-30.72,1.16-4.94.48-7.5-4.48-9.88-18.52-8.91-35.73-19.87-50.26-34.66a67.47,67.47,0,0,1-18.75-35.48ZM733,478.07a196.78,196.78,0,0,1-10.5,25c-25.88,51.14-78.76,77-134.89,65.63-29.59-6-51.89-23-68.79-47.5-1.89-2.76-3.74-3.89-7.26-3.68-31.76,1.94-54,22.3-58.58,53.73-.5,3.45-1,6.71,0,10.29,10.2,36.91,14,74.74,16.12,112.82,1.27,23.11,1.3,46.23.6,69.36-.08,2.62.37,3.8,3.55,3.6,34.9-2.18,68,4.85,99.39,20,3.93,1.9,7.3,4.11,10.91-.62,1-1.34,3.54-1.68,5.44-2.16,6.14-1.55,12.33-.88,18.27.67a520.75,520.75,0,0,0,62.87,12.7c29.18,3.84,58.46,6.48,87.8,8.54,23.56,1.66,47.17,2.49,70.78,2.82,33.07.45,66.18,2,99-3.7,52.51-9.11,91.64-35.51,112.26-86.12,2-4.88,5.2-8.56,10.07-10.46,2.22-.86,3-2,3.18-4.31A818,818,0,0,0,1052,601c-2.69-37.17-7.4-74.11-13.73-110.84-.72-4.18-.47-8.71-3.29-12.36-12.59-16.3-28.26-27.95-48.72-32.45-5.35-1.17-10.29-.55-14.54,3-3.79,3.2-8.3,4.82-12.93,4.12s-5.9,1.3-7.29,5c-7.82,20.84-19.14,39.49-35.8,54.52-19.79,17.85-43.27,26.72-69.75,28.21-34.42,1.93-64.61-7.82-89.75-31.94C747.12,499.54,739.75,489.54,733,478.07ZM720.82,373.13a100.45,100.45,0,0,0-41.47-48.22c-23.68-14.53-49.67-19-77-17.13-23.26,1.62-44.14,9.35-61.89,24.67-22.22,19.19-34.85,44.15-42.3,72-3.14,11.72-6.05,23.59-4.67,35.9a163,163,0,0,0,7.64,33.48C510,500.49,522.71,525,545,542.73c36.56,29.1,77.15,30.67,118.33,12.36,36-16,55.37-46.88,66.41-83.6.69-2.3.46-4.92,2.26-7.4.69,1.37,1.23,2.35,1.68,3.36C765.85,539.62,845.47,550.16,896,520.4c24.22-14.26,39.63-36.13,49.75-61.82,11.59-29.43,17.61-59.61,9.61-91.18C937.23,295.72,875.33,265.89,813.46,278,782.34,284,759.64,302.89,742,328.46A153.46,153.46,0,0,0,720.82,373.13Zm-.77-13.63c4.69-11.26,9.69-21.5,16-31,22.88-34.4,53.6-55.79,96-57.79,53.75-2.53,97.41,23.34,119.49,71,1.66,3.59,3.63,6.47,7.11,8.54a22,22,0,0,1,8.72,10A18.65,18.65,0,0,0,977.61,370c11.3,4.88,22.19,10.58,32.1,18,2.27,1.7,4.47,3.47,7.54,5.86a270.35,270.35,0,0,0-17.75-42.94C978.9,311,949.61,278.9,912.59,253.7c-2.71-1.84-4.27-1.51-6.12.87s-3.87,4.57-5.88,6.79c-1.2,1.32-2.68,2.24-4.3.72-1.42-1.33-.71-2.71.33-3.94a46.81,46.81,0,0,1,4.91-5.65c3.6-3.07,2.37-4.53-1.14-6.61a357.89,357.89,0,0,0-60.29-28.42c-10.76-3.91-10.71-4.06-13.11,7.31a16.44,16.44,0,0,0-.3,2c-.16,1.78-1.1,2.86-2.88,2.65s-2.44-1.65-2.13-3.32a60.56,60.56,0,0,1,2.1-9.73c1.19-3.26,0-4.34-2.9-5.16a341.56,341.56,0,0,0-81-13.09,359.67,359.67,0,0,0-61.7,3c-4,.55-5.63,1.34-3.56,5.92,2.51,5.56,4,11.6,5.82,17.46.57,1.87,1.29,4.28-1.56,4.87-2.38.49-2.78-1.58-3.31-3.45a178.25,178.25,0,0,0-6.66-19.83c-.86-2.1-1.66-3.23-4.32-2.71-36.63,7.18-71.45,19.22-103.71,38.29-2.91,1.72-3.31,2.77-.85,5.39a61.26,61.26,0,0,1,13.46,22.53c.64,1.87,2,4.52-1,5.49-2.63.85-3.1-1.65-3.75-3.57-2.71-8-7.35-14.81-12.7-21.28-2.39-2.89-4.07-3.16-7.22-1A255,255,0,0,0,494.62,299a265.24,265.24,0,0,0-35.52,58.7c-1.45,3.26-1.05,4.34,2.73,4.21,5.31-.17,10.64.1,16,.31,1.89.08,4.46-.22,4.43,2.71,0,3.22-2.73,2.25-4.52,2.25-5.82,0-11.66.07-17.46-.36-3.82-.29-5.45,1.1-6.75,4.64a318.19,318.19,0,0,0-18.15,81c-.62,6.76-1.88,13.61-.8,21,10.15-9.4,21.52-16.1,31.85-24.2,13.29-10.41,23.09-22.34,25.93-40.19,3.34-21,12.31-40.28,24.63-57.78,21.65-30.78,51.37-46.92,88.92-48.43,38.88-1.56,73.3,8.88,100.5,38.19C711.44,346.44,715.6,352.61,720.05,359.5Zm400.92,243h.21c0-28.63-.06-57.27.09-85.91,0-3.64-.91-4.44-4.42-3.94-17.88,2.54-35.46.23-52.88-3.82-3-.69-4.2-.61-4,3.3,1,24.26,2.1,48.53,2.29,72.81.32,40.27,1.15,80.56-1.67,120.78-.12,1.67-.28,3.24,1.09,4.64,3.17,3.24,4,7.45,4.83,11.75,1.73,9.33.67,18.65-.37,27.86-4.86,43.11-24.26,78.59-57.11,106.74-2.67,2.29-3.87,4.48-3.59,8,1.54,19.57,2.9,39.15,4.32,58.72,1.9,26.21,3.88,52.42,5.59,78.64.23,3.56,1.24,5.25,4.76,6.18,16,4.23,32,8.55,47.94,13.24,4.17,1.23,5.38.25,6.34-3.72,7-29.08,10.09-58.62,11-88.45.41-13.63.24-27.28,1.45-40.88,2.21-25,8.46-49.11,15-73.16,11.45-41.71,18.49-84.09,19.06-127.38C1121.28,659.49,1121,631,1121,602.54ZM406.6,1017.29c4.5-16.22,13.72-28.79,24.9-40.28,3-3,9.67-4.45,8.33-9.31-1.1-4-6.53-6.29-10.42-8.87-.7-.46-1.4-.9-2.12-1.32a113.65,113.65,0,0,0-21.83-9.7c-3.86-1.31-4.73-4.25-1.94-6.54a178.29,178.29,0,0,1,14.18-11c15.34-10.21,35.16-7.34,45.21,6.36a52.4,52.4,0,0,1,8.63,20c.53,2.44,1.49,4,4.06,5A19.23,19.23,0,0,1,486,971.24a34.31,34.31,0,0,1,3.37,18.41c-.21,3.24-.32,4.64,4,4,26.57-3.74,53.07-3.07,79.28,3,4.79,1.1,5.13-.31,5.12-4.33q-.15-64.2,0-128.39c0-3.43-1.15-5-4.18-6.24a462.71,462.71,0,0,0-52.95-18.82C499.92,833,479,828.7,457.36,828.57c-2.75,0-5.09.32-7.09,2.69-9.15,10.87-20.57,18.83-33.2,25.1-10,5-19.77,10.29-28.71,17-17.69,13.28-34,27.86-44.85,47.57-10.37,18.88-9.23,36.9,4.53,53.84C363.65,994,384.36,1006.13,406.6,1017.29Zm483.27-96h.38c0-13.16-.19-26.32.11-39.47.11-4.65-1-6.21-6-6.21-23.79,0-47.58.08-71.36-.9-25.75-1.06-51.5-2-76.92-6.51-4.68-.83-5.19.29-5.16,4.39.14,23.65-.2,47.3.12,70.94.35,26.22,11.43,47.38,32.74,62.44,25.15,17.76,53.32,19.31,82,11.6,26.09-7,41.4-24.76,43.79-51.87C890.94,951,889.87,936.11,889.87,921.3Zm193.94-542.76c-4.79.49-10,.23-15.06,1.17-3,.56-5.83,1.09-5.35,5s3.18,3.81,6.32,3.41c11.76-1.5,23.51-2,35,1.61,17.44,5.38,23.33,23.4,12.45,38.13s-33.81,14.64-41.42,2.4c-1.49-2.39-3.89-3.32-6.38-1.31s-2,4.42-.24,6.6a35.28,35.28,0,0,0,4.75,5.09c11,9.22,28.49,9.65,41.39.64,12.34-8.62,17.15-20.81,15-35.59-2-13.3-10.89-20.26-23-24.1C1099.72,379.16,1092,378.76,1083.81,378.54Zm-465.74,433a19.47,19.47,0,0,0-19.88,19.8,19.84,19.84,0,0,0,20,19.89c11.21,0,19.72-8.65,19.71-20S629.51,811.49,618.07,811.5ZM409.75,943.85c13.06,4.86,25.2,10.75,34.8,20.8,1,1.08,2,.82,3.09.18a41.36,41.36,0,0,1,19.51-5.69c-3.84-12.83-7.58-25.5-22.39-28.88C430.55,927,419.38,933.17,409.75,943.85ZM969.46,831.49c-.41,6.62,1.31,12.58,5.8,17.5,5.61,6.13,13.81,5.92,19.18-.31,7.5-8.7,7.59-24.68.18-33.38-5.64-6.63-14.3-6.7-19.86,0A22.56,22.56,0,0,0,969.46,831.49Zm39.91,224.92c0-2.33,0-4.65,0-7s.67-5.15-2.58-5.51c-3.59-.39-3.69,2.72-3.91,5.16a82.62,82.62,0,0,0,6.73,41.81c7,15.7,18.74,26.75,34.52,33.52,2.25,1,4.73,1.95,6-1s-1.21-4-3.4-5-4.24-1.91-6.25-3.07C1017.71,1102.27,1009.68,1081.32,1009.37,1056.41ZM577.6,1045.27c0-.83,0-1.67,0-2.5-.11-2.26-1.1-4-3.54-3.88-2.12.1-3.1,1.65-3,3.8,0,1.5.07,3,0,4.49-1,14-5.28,26.64-15.77,36.54-9.25,8.74-20.72,12.15-33,13.56-2.45.28-4.44,1.1-4,3.89.41,2.39,2.37,2.72,4.63,2.57C555,1101.52,577.35,1077.65,577.6,1045.27Zm479.77-448.34c0-1.81,0-3.62,0-5.42q-1.12-38.58-2.28-77.14c-.27-8.35-.36-8.35-9.4-10.57C1050.42,534.84,1054.34,565.8,1057.37,596.93Z" transform="translate(-331.22 -103.8)"/><path d="M744.7,781.82c-18.44.71-39.19-1.35-59.17-8.6-27.87-10.12-47.7-29.59-62.53-54.65-3.8-6.42-7.06-13.17-10.53-19.79-2.45-4.67-2.54-9.33.84-13.56s7.72-5.17,13-3.94c20.4,4.76,40.93,8.79,62,9.69,15.32.66,30.5-.86,45.64-2.91,45.31-6.13,90.58-12.16,136.49-11.92,24.3.13,48.48-2.64,71.71-10.56,6-2,11.68-4.72,17.53-7.06,5.26-2.11,9.21.5,8.72,6.08-2.32,26.14-9.4,50.61-25.78,71.69-17.84,23-41.9,35.06-70.27,38.14-21,2.27-42.11,2.76-63.17,4.17C788.54,780,768,782,744.7,781.82Zm-37.38-60c-8-6.21-12.33-13.77-13.69-23-.33-2.23-1.66-2.92-3.81-3-4-.1-8-.34-11.94-.71A362.85,362.85,0,0,1,625.41,686c-3.14-.77-6-.48-8.16,2.15s-1.85,5.46-.46,8.39a193,193,0,0,0,21.52,35.84A7.38,7.38,0,0,0,645,735.7c8.3-.22,16.62.17,24.89-1.08C682.89,732.64,695.48,729.42,707.32,721.83Zm158.61-41.12v.62c-5.81,0-11.63-.1-17.45,0-16.13.32-32.21,1.49-48.26,3.23-1.82.19-3.21.4-3.44,2.63a59.24,59.24,0,0,1-4.47,16.29c-.91,2.26,0,3.41,1.3,4.78,5.62,6.12,12.2,10.85,20.2,13.24,15.87,4.73,30.87,1.13,45.58-5,14.27-6,19.36-18.18,21.79-32.17.44-2.51-.6-3.69-3.27-3.61C873.92,680.8,869.92,680.71,865.93,680.71Zm34.3,39.2c9.08-.11,16.2-.71,23.17-2.42,11.67-2.87,19.28-9.89,22.22-21.75a70.73,70.73,0,0,0,1.9-17.8c-.08-8.64,0-8.64-8-6.33-1.28.37-2.56.72-3.84,1.07A241.2,241.2,0,0,1,891,680.06c-1.71.13-4.77-1.17-4.84,3-.16,9.78-3.87,18.5-9.67,26.22-2.33,3.11-1.37,4.43,1.48,6C885.56,719.38,893.75,720.12,900.23,719.91Zm-157.72,3.58a63.64,63.64,0,0,0,6.48,0c20.34-2.08,37.76-8.73,42.34-33.32.64-3.4.42-4.85-3.61-4.37-28.71,3.41-57.2,8.74-86.16,10-2.28.11-3.18.77-2.87,3.32,1.16,9.64,9.22,19.12,18.64,21.32A102.21,102.21,0,0,0,742.51,723.49Zm69.86,50c14.29-1.07,29.39-1.93,44.53-2.37a134.32,134.32,0,0,0,27.16-3.53c2.81-.66,3.17-1.62,1.87-4-3.74-7-9.57-11.39-16.78-14.1-12-4.51-24.39-4.89-36.84-2.68-11.78,2.09-22.19,6.9-29.66,16.74-3.2,4.22-2.32,8.13,2.51,9.87C807.06,774.1,809.42,773.52,812.37,773.52Zm-14.45.66c-17.91-16.74-50.39-15.54-67.39,2.05C739.08,778.27,779.74,777.07,797.92,774.18Zm123-23.58c-11.14-1.56-20.41,1.06-29.45,4.83-1.23.52-4.3.88-2.41,3s.62,7.78,5.93,6A88.71,88.71,0,0,0,920.93,750.6Z" transform="translate(-331.22 -103.8)"/><path d="M800.36,423.68a37.63,37.63,0,1,1,37.32,38A37.51,37.51,0,0,1,800.36,423.68Zm22.25.18a15.32,15.32,0,0,0,15.25,15.64,15.67,15.67,0,1,0-.06-31.34A15.31,15.31,0,0,0,822.61,423.86Z" transform="translate(-331.22 -103.8)"/><path d="M932.3,392c-5.84-24.09-19.07-42.88-40.55-55.51-18.21-10.71-38.32-13.73-59.07-13-18,.61-35.3,4.54-50.52,14.83C761.87,352,749.74,371.17,744.72,395a1.92,1.92,0,0,1-.76,1.24c2.39-24,10.82-45.61,26.95-63.75,16.48-18.55,37.68-27.11,62.29-27.88,26.68-.84,50.81,5.66,70.22,24.92C920.7,346.67,929.89,367.77,932.3,392Z" transform="translate(-331.22 -103.8)"/><path d="M654.12,454.58a33.76,33.76,0,0,1-33.78,34,34.23,34.23,0,0,1-34.28-34.23,33.78,33.78,0,0,1,34.48-33.85C639.6,420.68,654.17,435.45,654.12,454.58Zm-33.73,18.23a18.14,18.14,0,0,0,18.37-18.27,18.55,18.55,0,0,0-18.71-18.64c-10.43.07-18.25,8.22-18.18,19C602,465.26,609.76,472.84,620.39,472.81Z" transform="translate(-331.22 -103.8)"/><path d="M707.67,422.34c-13.5-44.8-47.54-71.84-98.38-69.56-34.06,1.53-69.36,18.62-83.72,68-.3-12.48,11.24-41.56,25.77-57.63,15.29-16.91,34.4-25.75,56.91-27.11,26.42-1.59,50.08,5.22,69,24.66C694.08,377.9,703.54,398.85,707.67,422.34Z" transform="translate(-331.22 -103.8)"/><path d="M705.47,466.34c-1.64,35-42.41,68.7-84.48,70.24-56.53,2.08-85.62-35-94-71.9,2.9,5.89,5,10.95,7.77,15.64,15,25.48,38.1,38.09,66.86,41.34,16.84,1.9,33.55,1,49.81-4.1,24.59-7.75,41.9-23.68,52.08-47.38.46-1.06.84-2.16,1.32-3.22C704.89,466.7,705.23,466.54,705.47,466.34Z" transform="translate(-331.22 -103.8)"/><path d="M927.78,435.83c-12.67,46.3-50.23,72.95-98.46,70.77-44.65-2-71.16-31.3-79.9-64.44.88,1.78,1.73,3.57,2.64,5.34,13.77,26.91,36.25,41.3,65.74,45.12,19.87,2.59,39.48,1.09,58.46-5.81,22.76-8.27,38.79-23.85,49.11-45.55C926.22,439.47,927,437.64,927.78,435.83Z" transform="translate(-331.22 -103.8)"/><path d="M884.81,926.33c0,11.49-.14,23,0,34.47a52.38,52.38,0,0,1-40.11,51.83c-26.78,6.75-52.94,6-76.59-9.94-19.93-13.44-31.15-32.5-31.53-57-.35-22.64-.1-45.29-.21-67.93,0-2.85.31-4,3.81-3.51,35.79,5.12,71.85,6.1,107.94,6.47,10.47.11,21,.54,31.43.42,4,0,5.46.89,5.37,5.19-.28,13.31-.1,26.64-.1,40ZM771.67,947.39c0,7.21,1.7,15,5.91,23.71,16.06,33.38,56.37,37,77,7,15.1-22,13.27-54-4.22-73.78-17.68-20-46.8-20.11-64.44-.07C776,915.59,771.36,929,771.67,947.39Z" transform="translate(-331.22 -103.8)"/><path d="M854.64,937.65H833.35c-2.06,0-2.11-1.8-2.64-3.12-2.9-7.28-6.69-10.1-12.8-9.51s-10,4.6-11,12.17a44.1,44.1,0,0,0-.11,10.46c.54,5,2.94,9.05,8.06,10.33s10.29,1.12,14.44-3c3.74-3.7,3.36-5.82-1.4-8.21a9.67,9.67,0,0,1-3.73-2.88h31.13c.66,1.05-.68,1.74-1.34,2.5-11,12.74-22,25.41-32.93,38.18-2,2.28-3.14,3.06-5.61.37q-17.89-19.5-36.17-38.63c-2.21-2.32-2.65-3.7-.06-6.31q18.11-18.25,35.7-37c2.42-2.57,3.78-3.16,6.56-.27,10.05,10.43,20.41,20.55,30.62,30.83C853.05,934.57,854.53,935.3,854.64,937.65Z" transform="translate(-331.22 -103.8)"/></svg>